<svg xmlns="http://www.w3.org/2000/svg" viewBox="0 0 512 512" width="512" height="512" role="img" aria-label="Default profile avatar">
  <defs>
    <clipPath id="male-ring"><circle cx="256" cy="256" r="212"/></clipPath>
  </defs>
  <circle cx="256" cy="256" r="250" fill="#111111"/>
  <circle cx="256" cy="256" r="242" fill="#86ccec"/>
  <circle cx="256" cy="256" r="212" fill="#cfeaf7"/>
  <g clip-path="url(#male-ring)">
    <!-- suit jacket / shoulders -->
    <path d="M60 472 C 66 388 150 330 256 330 C 362 330 446 388 452 472 Z" fill="#0b2438"/>
    <!-- white shirt -->
    <path d="M256 330 L300 354 L292 472 L220 472 L212 354 Z" fill="#ffffff"/>
    <!-- jacket lapels -->
    <path d="M256 330 L212 354 L186 472 L246 472 Z" fill="#0e2f49"/>
    <path d="M256 330 L300 354 L326 472 L266 472 Z" fill="#0e2f49"/>
    <!-- tie -->
    <path d="M256 354 L236 374 L256 472 L276 374 Z" fill="#2f7f92"/>
    <!-- neck -->
    <rect x="228" y="284" width="56" height="46" rx="18" fill="#9fd4ef"/>
    <!-- ears -->
    <circle cx="182" cy="214" r="16" fill="#b3e0f5"/>
    <circle cx="330" cy="214" r="16" fill="#b3e0f5"/>
    <!-- head -->
    <path d="M186 202 c0 -72 40 -112 70 -112 c30 0 70 40 70 112 c0 62 -32 106 -70 106 c-38 0 -70 -44 -70 -106 Z" fill="#b3e0f5"/>
    <!-- hair -->
    <path d="M181 208
      C 174 118 222 80 256 80
      C 292 80 340 116 331 206
      C 329 176 310 162 300 158
      C 306 176 302 190 302 190
      C 280 156 226 152 200 176
      C 186 189 180 197 181 208 Z" fill="#0e3350"/>
  </g>
</svg>
